<?xml version="1.0" standalone="no"?><!DOCTYPE svg PUBLIC "-//W3C//DTD SVG 1.1//EN" "http://www.w3.org/Graphics/SVG/1.1/DTD/svg11.dtd"><svg t="1578993095235" class="icon" viewBox="0 0 1024 1024" version="1.1" xmlns="http://www.w3.org/2000/svg" p-id="4648" width="48" height="48" xmlns:xlink="http://www.w3.org/1999/xlink"><defs><style type="text/css"></style></defs><path d="M759.621818 170.589091h-104.261818V143.592727a26.065455 26.065455 0 1 0-52.130909 0v26.996364h-182.458182V143.592727a26.065455 26.065455 0 1 0-52.130909 0v26.996364h-104.261818A79.825455 79.825455 0 0 0 186.181818 252.043636V849.454545a79.825455 79.825455 0 0 0 78.196364 81.454546h495.243636A79.825455 79.825455 0 0 0 837.818182 849.454545V252.043636a79.825455 79.825455 0 0 0-78.196364-81.454545z m26.065455 678.865454a26.763636 26.763636 0 0 1-26.065455 27.229091H264.378182a26.763636 26.763636 0 0 1-26.065455-27.229091V252.043636a26.530909 26.530909 0 0 1 26.065455-26.996363h104.261818v26.996363a26.065455 26.065455 0 1 0 52.130909 0V225.047273h182.458182v26.996363a26.065455 26.065455 0 1 0 52.130909 0V225.047273h104.261818a26.530909 26.530909 0 0 1 26.065455 26.996363zM707.490909 401.454545H316.509091a27.229091 27.229091 0 0 0 0 54.225455h390.981818a27.229091 27.229091 0 0 0 0-54.225455z m0 135.68H316.509091a27.229091 27.229091 0 0 0 0 54.458182h390.981818a27.229091 27.229091 0 0 0 0-54.458182z m0 135.912728H316.509091a27.229091 27.229091 0 0 0 0 54.225454h390.981818a27.229091 27.229091 0 0 0 0-54.225454z" p-id="4649" fill="#8a8a8a"></path></svg>